# xmcd CD database file
#
# Track frame offsets:
#	150
#	36943
#	57965
#	87073
#	125745
#	157048
#	191020
#
# Disc length: 3251 seconds
#
# Revision: 0
# Processed by: cddbd v1.5.2PL0 Copyright (c) Steve Scherf et al.
# Submitted via: CDex 1.70beta1
#
DISCID=5c0cb107
DTITLE=Matthias Anton Group - No. 1 suite
DYEAR=2012
DGENRE=Jazz
TTITLE0=Jerusalem
TTITLE1=Interlude
TTITLE2=Abendnebel
TTITLE3=Suite no. 1 part 1
TTITLE4=Suite no. 1 part 2
TTITLE5=Suite no. 1 part 3
TTITLE6=In eternal gratitude
EXTD=YEAR: 2012
EXTT0=
EXTT1=
EXTT2=
EXTT3=
EXTT4=
EXTT5=
EXTT6=
PLAYORDER=
